<svg version="1.1" xmlns="http://www.w3.org/2000/svg" viewBox="0 0 41.954545454545496 50.44739530132796" width="41.954545454545496" height="50.44739530132796">
  <!-- svg-source:excalidraw -->
  
  <defs>
    <style>
      @font-face {
        font-family: "Virgil";
        src: url("https://excalidraw.com/Virgil.woff2");
      }
      @font-face {
        font-family: "Cascadia";
        src: url("https://excalidraw.com/Cascadia.woff2");
      }
    </style>
  </defs>
  <rect x="0" y="0" width="41.954545454545496" height="50.44739530132796" fill="#ffffff"></rect><g stroke-linecap="round" transform="translate(12.67824310521064 13.70020429009196) rotate(0 8.721910112359524 13.373595505617999)"><path d="M5.69 1.36 L15.72 0.07 L18.02 3.8 L16.83 23.08 L14.42 26.5 L3.71 24.64 L0.41 26.05 L-1.53 0.95 L2.5 0.28" stroke="none" stroke-width="0" fill="#868e96"></path><path d="M4.36 0 M4.36 0 C6.94 0.15, 9.3 -0.32, 13.08 0 M4.36 0 C7.51 0.19, 10.75 -0.36, 13.08 0 M13.08 0 C17.56 -1.41, 18.27 1.55, 17.44 4.36 M13.08 0 C16.84 0.67, 15.86 2.21, 17.44 4.36 M17.44 4.36 C16.99 9.54, 16.19 12.83, 17.44 22.39 M17.44 4.36 C17.41 7.8, 17.54 13.03, 17.44 22.39 M17.44 22.39 C16.46 27.05, 15.87 26.83, 13.08 26.75 M17.44 22.39 C17.09 24.76, 17.85 25.76, 13.08 26.75 M13.08 26.75 C11.58 26.59, 9.06 26.45, 4.36 26.75 M13.08 26.75 C9.63 26.43, 6.38 27.07, 4.36 26.75 M4.36 26.75 C1.81 26.49, 0.77 25.43, 0 22.39 M4.36 26.75 C3.3 27.55, 1.42 23.62, 0 22.39 M0 22.39 C0.47 19.59, -1.17 16.38, 0 4.36 M0 22.39 C-0.65 17.65, 0.77 14.01, 0 4.36 M0 4.36 C-0.14 0.92, 0.69 1.73, 4.36 0 M0 4.36 C0.18 -0.1, 0.88 -1, 4.36 0" stroke="#000000" stroke-width="1" fill="none"></path></g><g stroke-linecap="round" transform="translate(10 11.691521961184833) rotate(0 10.977272727272748 2.1349504163194695)"><path d="M2.42 0.73 L20.69 0.85 L23.3 2.59 L21.58 3.7 L1.1 5.53 L-1.84 3.34 L2.83 -1.81" stroke="none" stroke-width="0" fill="#868e96"></path><path d="M1.07 0 M1.07 0 C4.7 0.38, 8.69 0.73, 20.89 0 M1.07 0 C8.1 -0.66, 14.28 -0.45, 20.89 0 M20.89 0 C22.84 -1.74, 20.67 1.93, 21.95 1.07 M20.89 0 C19.97 0.95, 22.06 1.21, 21.95 1.07 M21.95 1.07 C21.74 1.71, 22.07 2.43, 21.95 3.2 M21.95 1.07 C21.85 1.83, 21.91 2.7, 21.95 3.2 M21.95 3.2 C20.9 4.33, 23.49 3.28, 20.89 4.27 M21.95 3.2 C23.98 3.78, 21.69 3.92, 20.89 4.27 M20.89 4.27 C14.56 3.63, 11.81 5.87, 1.07 4.27 M20.89 4.27 C16.37 5.07, 9.29 4.06, 1.07 4.27 M1.07 4.27 C-0.79 4.72, 1.82 4.27, 0 3.2 M1.07 4.27 C0.06 5.16, 0.15 5.77, 0 3.2 M0 3.2 C-0.2 2.63, -0.08 1.84, 0 1.07 M0 3.2 C-0.07 2.4, 0.1 1.59, 0 1.07 M0 1.07 C-1.5 1.91, -0.2 -0.14, 1.07 0 M0 1.07 C-0.61 -0.52, 2.35 0.18, 1.07 0" stroke="#000000" stroke-width="1" fill="none"></path></g><g stroke-linecap="round" transform="translate(14.228804902961201 10) rotate(0 7.030388151174634 0.8281409601634238)"><path d="M1.14 -0.2 L14.5 1.34 L13.45 1.94 L-0.15 1.69 L1.67 -1.84" stroke="none" stroke-width="0" fill="#868e96"></path><path d="M0.41 0 M0.41 0 C3.49 -1.11, 8.73 -0.43, 13.65 0 M0.41 0 C4.73 0.28, 8.61 0.53, 13.65 0 M13.65 0 C12.43 1.8, 12.97 1.38, 14.06 0.41 M13.65 0 C11.92 -1.47, 15.87 -1.49, 14.06 0.41 M14.06 0.41 C14.09 0.64, 14.09 0.9, 14.06 1.24 M14.06 0.41 C14.1 0.61, 14.09 0.83, 14.06 1.24 M14.06 1.24 C13.08 0.88, 14.04 0.61, 13.65 1.66 M14.06 1.24 C14.54 3.7, 12.79 3.68, 13.65 1.66 M13.65 1.66 C9.44 2.7, 5.29 1.07, 0.41 1.66 M13.65 1.66 C9.86 2.12, 6.15 2.36, 0.41 1.66 M0.41 1.66 C1.93 0.05, -0.25 0.38, 0 1.24 M0.41 1.66 C0.65 3.75, 0.41 1.22, 0 1.24 M0 1.24 C0.03 1.01, -0.06 0.61, 0 0.41 M0 1.24 C0.03 0.91, 0.04 0.6, 0 0.41 M0 0.41 C-0.76 1.71, -1.46 -1.5, 0.41 0 M0 0.41 C1.79 -0.5, -0.02 -0.61, 0.41 0" stroke="#000000" stroke-width="1" fill="none"></path></g><g stroke-linecap="round"><g transform="translate(16.575877329340074 20.192792368190226) rotate(0 0.6349033234470198 7.54791164938581)"><path d="M0.81 -0.37 C1.08 2.11, 1.45 12.54, 1.5 15.34 M-0.23 -1.6 C-0.07 1, 0.68 14.02, 0.77 16.7" stroke="#000000" stroke-width="1" fill="none"></path></g></g><g stroke-linecap="round"><g transform="translate(21.181987683178704 20.123462491618767) rotate(0 0.6279797154120388 8.41914308468101)"><path d="M-0.37 0.42 C-0.33 2.9, 0.37 13.34, 0.74 15.7 M1.64 -0.41 C1.45 2.21, -0.36 14.63, -0.39 17.25" stroke="#000000" stroke-width="1" fill="none"></path></g></g><g stroke-linecap="round"><g transform="translate(26.23567862910727 21.52169438481397) rotate(0 0.12370509364416193 7.43529606858489)"><path d="M0.42 -0.34 C0.47 2.46, 1.17 13.75, 1.1 16.44 M-0.82 -1.57 C-1 0.93, -0.36 11.59, 0.16 14.71" stroke="#000000" stroke-width="1" fill="none"></path></g></g></svg>