<svg version="1.1" xmlns="http://www.w3.org/2000/svg" viewBox="0 0 38.887844244919734 38.457888427369156" width="38.887844244919734" height="38.457888427369156">
  <!-- svg-source:excalidraw -->
  
  <defs>
    <style>
      @font-face {
        font-family: "Virgil";
        src: url("https://excalidraw.com/Virgil.woff2");
      }
      @font-face {
        font-family: "Cascadia";
        src: url("https://excalidraw.com/Cascadia.woff2");
      }
    </style>
  </defs>
  <rect x="0" y="0" width="38.887844244919734" height="38.457888427369156" fill="#ffffff"></rect><g stroke-linecap="round" transform="translate(16.28806750828494 22.23649503517143) rotate(45.161171448428654 7.099930388458802 0.696071606711655)"><path d="M1.34 -1.31 L14.31 0.36 L15.76 0.43 L1.33 1.18 L-0.08 1.07" stroke="none" stroke-width="0" fill="#868e96"></path><path d="M0.35 0 M0.35 0 C4.57 1.29, 10.49 -1.29, 13.85 0 M0.35 0 C4.97 -0.52, 10.82 -0.16, 13.85 0 M13.85 0 C14.7 1.66, 14.15 -1.05, 14.2 0.35 M13.85 0 C12.16 1.89, 14.92 -0.13, 14.2 0.35 M14.2 0.35 C14.17 0.52, 14.17 0.61, 14.2 1.04 M14.2 0.35 C14.22 0.64, 14.17 0.9, 14.2 1.04 M14.2 1.04 C15.03 2.97, 15.41 1.42, 13.85 1.39 M14.2 1.04 C14.63 2.3, 12.4 0.83, 13.85 1.39 M13.85 1.39 C8.94 0.58, 6.4 0.29, 0.35 1.39 M13.85 1.39 C8.73 0.86, 3.98 1.3, 0.35 1.39 M0.35 1.39 C1.87 1.05, 1.54 2.72, 0 1.04 M0.35 1.39 C0.91 3.43, 1.35 -0.28, 0 1.04 M0 1.04 C0.05 0.91, 0.02 0.72, 0 0.35 M0 1.04 C-0.01 0.84, -0.03 0.65, 0 0.35 M0 0.35 C1.85 -0.78, 0.53 -1.23, 0.35 0 M0 0.35 C1.17 0.67, -1.31 0.45, 0.35 0" stroke="#000000" stroke-width="1" fill="none"></path></g><g stroke-linecap="round" transform="translate(10 10) rotate(0 6.6582853620416245 6.65828536204161)"><path d="M8.95 -0.36 C10.17 0.01, 11.97 1.94, 12.82 3.3 C13.68 4.66, 14.27 6.23, 14.07 7.78 C13.86 9.32, 12.8 11.5, 11.6 12.57 C10.4 13.64, 8.32 14.46, 6.87 14.2 C5.41 13.94, 4.03 11.98, 2.86 10.99 C1.69 10.01, -0.01 9.46, -0.16 8.3 C-0.32 7.14, 1.02 5.3, 1.93 4.03 C2.84 2.77, 3.91 1.29, 5.29 0.71 C6.66 0.12, 9.41 0.57, 10.18 0.5 C10.95 0.43, 10.14 0.19, 9.91 0.29 M3.8 0.68 C4.83 0.05, 6.6 0.9, 8.1 1.2 C9.61 1.5, 11.94 1.33, 12.83 2.48 C13.73 3.64, 13.6 6.44, 13.49 8.13 C13.38 9.82, 13.24 11.7, 12.15 12.62 C11.07 13.55, 8.41 13.95, 6.99 13.68 C5.56 13.41, 4.69 11.79, 3.6 11.02 C2.52 10.26, 1.09 10.5, 0.46 9.08 C-0.17 7.67, -1.03 3.74, -0.18 2.53 C0.67 1.32, 4.91 2.21, 5.58 1.81 C6.25 1.4, 4.14 0, 3.85 0.1" stroke="none" stroke-width="0" fill="#868e96"></path><path d="M5.43 0.61 C6.8 0.18, 9.65 -0.55, 10.86 0 C12.07 0.55, 12.2 2.38, 12.69 3.9 C13.18 5.41, 14.43 7.53, 13.79 9.09 C13.16 10.66, 10.16 12.47, 8.87 13.29 C7.58 14.11, 7.39 14.51, 6.04 14 C4.68 13.49, 1.68 11.47, 0.73 10.21 C-0.22 8.95, 0.14 7.62, 0.35 6.44 C0.55 5.25, 0.82 4.26, 1.96 3.1 C3.11 1.93, 6.21 -0.26, 7.2 -0.56 C8.19 -0.86, 7.85 1.1, 7.9 1.29 M2.88 1.35 C3.9 0.62, 5.66 -0.55, 7.41 -0.36 C9.16 -0.18, 12.19 1.07, 13.38 2.46 C14.58 3.85, 14.78 6.71, 14.59 7.98 C14.39 9.26, 13.4 9.13, 12.22 10.12 C11.05 11.1, 8.86 13.37, 7.54 13.89 C6.22 14.41, 5.52 14.08, 4.31 13.24 C3.11 12.41, 0.83 10.6, 0.31 8.89 C-0.21 7.18, 0.7 4.34, 1.19 2.97 C1.69 1.59, 2.81 0.86, 3.26 0.64 C3.71 0.42, 3.96 1.71, 3.9 1.66" stroke="#000000" stroke-width="1" fill="none"></path></g><g stroke-linecap="round" transform="translate(11.996059851574273 12.206171414899444) rotate(0 4.776661272633305 4.776661272633362)"><path d="M5.79 0.69 C6.67 1.17, 8.29 2.46, 8.87 3.44 C9.45 4.43, 9.35 5.67, 9.27 6.58 C9.2 7.49, 9.05 8.32, 8.41 8.91 C7.77 9.5, 6.71 10.28, 5.45 10.14 C4.2 9.99, 1.67 8.68, 0.87 8.06 C0.08 7.43, 0.54 7.21, 0.66 6.37 C0.77 5.53, 1.06 3.88, 1.57 2.99 C2.07 2.1, 2.76 1.37, 3.69 1.03 C4.61 0.68, 6.54 0.98, 7.12 0.94 C7.69 0.9, 7.16 0.88, 7.12 0.79 M5.8 -0.87 C6.66 -0.61, 8.65 1.01, 9.12 1.98 C9.59 2.95, 8.69 3.77, 8.62 4.95 C8.56 6.13, 9.08 8.22, 8.73 9.05 C8.38 9.87, 7.5 9.68, 6.52 9.89 C5.54 10.09, 4 10.77, 2.86 10.27 C1.71 9.77, -0.13 8.26, -0.34 6.9 C-0.55 5.54, 1.3 2.98, 1.61 2.13 C1.93 1.28, 0.69 2.26, 1.57 1.81 C2.46 1.35, 6.34 -0.19, 6.93 -0.61 C7.51 -1.03, 5.1 -1.11, 5.08 -0.71" stroke="none" stroke-width="0" fill="white"></path><path d="M6.48 0.89 C7.29 1.06, 7.27 0.84, 7.68 1.7 C8.09 2.56, 8.83 5.15, 8.92 6.05 C9.01 6.95, 8.7 6.42, 8.23 7.12 C7.75 7.81, 6.94 10.06, 6.06 10.21 C5.17 10.36, 3.99 8.63, 2.91 8 C1.83 7.37, 0 7.24, -0.43 6.43 C-0.86 5.62, -0.31 4.13, 0.34 3.13 C1 2.14, 2.58 1.06, 3.52 0.45 C4.46 -0.15, 5.25 -0.59, 5.98 -0.49 C6.71 -0.4, 7.87 0.97, 7.92 1.02 M5.67 -0.73 C6.6 -0.37, 6.91 1.67, 7.52 2.71 C8.13 3.75, 8.97 4.6, 9.34 5.5 C9.71 6.39, 10.47 7.43, 9.76 8.09 C9.05 8.74, 6.12 9.02, 5.08 9.41 C4.04 9.8, 4.11 10.85, 3.51 10.44 C2.92 10.03, 2.03 7.96, 1.51 6.94 C0.99 5.93, 0.52 5.41, 0.41 4.35 C0.29 3.29, 0.07 1.27, 0.82 0.58 C1.58 -0.11, 4.12 0.47, 4.96 0.22 C5.8 -0.04, 6.01 -1.08, 5.86 -0.94" stroke="#000000" stroke-width="1" fill="none"></path></g></svg>